<svg width="16" height="13" viewBox="0 0 16 13" fill="none" xmlns="http://www.w3.org/2000/svg">
<path d="M14.5938 0.8927H1.40625C0.630844 0.8927 0 1.51907 0 2.28898V10.6046C0 11.3745 0.630844 12.0009 1.40625 12.0009H2.03125V12.5283C2.03125 12.7854 2.24113 12.9938 2.5 12.9938C2.75887 12.9938 2.96875 12.7854 2.96875 12.5283V12.0009H13.0312V12.5283C13.0312 12.7854 13.2411 12.9938 13.5 12.9938C13.7589 12.9938 13.9688 12.7854 13.9688 12.5283V12.0009H14.5938C15.3692 12.0009 16 11.3745 16 10.6046V2.28898C16 1.51907 15.3692 0.8927 14.5938 0.8927ZM11.0312 11.07H1.40625C1.14778 11.07 0.9375 10.8612 0.9375 10.6046V2.28898C0.9375 2.03234 1.14778 1.82355 1.40625 1.82355H11.0312V11.07ZM15.0625 10.6046C15.0625 10.8612 14.8522 11.07 14.5938 11.07H11.9688V4.05759H15.0625V10.6046ZM15.0625 3.12674H11.9688V1.82355H14.5938C14.8522 1.82355 15.0625 2.03234 15.0625 2.28898V3.12674Z" fill="#696969"/>
<path d="M13.0408 9.64058C13.0935 9.89278 13.3327 10.0543 13.592 10.0061C13.8467 9.95341 14.0085 9.71508 13.9601 9.45876C13.9012 9.17947 13.6212 9.02687 13.3645 9.10441C13.1234 9.1808 12.9971 9.40899 13.0408 9.64058Z" fill="#696969"/>
<path d="M13.0408 7.6548C13.0935 7.907 13.3327 8.06856 13.592 8.02031C13.8467 7.96763 14.0085 7.7293 13.9601 7.47297C13.9012 7.19362 13.6212 7.04111 13.3645 7.11862C13.1234 7.19502 12.9971 7.4232 13.0408 7.6548Z" fill="#696969"/>
<path d="M13.0408 5.66895C13.0935 5.92115 13.3327 6.08272 13.592 6.03447C13.8467 5.98178 14.0085 5.74345 13.9601 5.48713C13.9012 5.20778 13.6212 5.05527 13.3645 5.13278C13.1234 5.20918 12.9971 5.43736 13.0408 5.66895Z" fill="#696969"/>
<path d="M3.4375 10.0151H8.5625C9.33791 10.0151 9.96875 9.38869 9.96875 8.61879V4.27482C9.96875 3.50491 9.33791 2.87854 8.5625 2.87854H3.4375C2.66209 2.87854 2.03125 3.50491 2.03125 4.27482V8.61879C2.03125 9.38869 2.66209 10.0151 3.4375 10.0151ZM2.96875 4.27482C2.96875 4.01818 3.17903 3.80939 3.4375 3.80939H8.5625C8.82097 3.80939 9.03125 4.01818 9.03125 4.27482V8.61879C9.03125 8.87542 8.82097 9.08421 8.5625 9.08421H3.4375C3.17903 9.08421 2.96875 8.87542 2.96875 8.61879V4.27482Z" fill="#696969"/>
</svg>
